# xmcd
#
# Track frame offsets:
#	150
#	15798
#	30824
#	43147
#	54547
#	70596
#	81765
#	94217
#	107945
#	123636
#	141828
#
# Disc length: 2047 seconds
#
# Revision: 0
# Processed by: cddbd v1.4PL0 Copyright (c) Steve Scherf et al.
# Submitted via: dBpowerAMP V4.0
#
DISCID=8807fd0b
DTITLE=Alen Jackson - When Somebody Loves You
DYEAR=1900
DGENRE=Country
TTITLE0=Meet And Potato Man
TTITLE1=When Somebody Loves You
TTITLE2=The Thrill Is Back
TTITLE3=www.Memory
TTITLE4=Where I Come From
TTITLE5=I Still Love You
TTITLE6=Life Or Love
TTITLE7=A Love Like That
TTITLE8=It's Alright To Be A Redneck
TTITLE9=Maybe I Should Stay Here
TTITLE10=Three Minute Positive Not Too Country Up - Tempo Cove SOng
EXTD=
EXTT0=
EXTT1=
EXTT2=
EXTT3=
EXTT4=
EXTT5=
EXTT6=
EXTT7=
EXTT8=
EXTT9=
EXTT10=
PLAYORDER=
